<!-- Generator: Adobe Illustrator 21.1.0, SVG Export Plug-In  -->
<svg version="1.1"
	 xmlns="http://www.w3.org/2000/svg" xmlns:xlink="http://www.w3.org/1999/xlink" xmlns:a="http://ns.adobe.com/AdobeSVGViewerExtensions/3.0/"
	 x="0px" y="0px" width="320px" height="512px" viewBox="0 0 320 512" style="enable-background:new 0 0 320 512;"
	 xml:space="preserve">
<path d="M316.485,120l-116-116.485c-4.686-4.686-12.284-4.686-16.971,0L67.515,120c-4.686,4.686-4.686,12.284,0,16.971
	l22.312,22.312c4.808,4.808,12.646,4.665,17.275-0.315L164,97.004V456H44.024c-3.183,0-6.235,1.264-8.485,3.515l-32,32
	C-4.021,499.074,1.333,512,12.024,512H196c13.255,0,24-10.745,24-24V97.004l56.899,61.963c4.629,4.98,12.467,5.123,17.275,0.315
	l22.312-22.312C321.172,132.284,321.172,124.686,316.485,120z"/>
</svg>
