<!-- Generator: Adobe Illustrator 21.1.0, SVG Export Plug-In  -->
<svg version="1.1"
	 xmlns="http://www.w3.org/2000/svg" xmlns:xlink="http://www.w3.org/1999/xlink" xmlns:a="http://ns.adobe.com/AdobeSVGViewerExtensions/3.0/"
	 x="0px" y="0px" width="640px" height="512px" viewBox="0 0 640 512" style="enable-background:new 0 0 640 512;"
	 xml:space="preserve">
<path d="M142.06,273.94l160,159.97c30.02,30.02,81.94,8.98,81.94-33.94v-71.08c118.18,4.94,121.95,30.99,104.44,89.17
	c-13.17,43.75,36.21,78.71,73.1,53.43c50.61-34.7,78.46-79.33,78.46-143.11c0-142.4-127.16-171.02-256-175.61V80.04
	c0-42.88-51.89-64-81.94-33.94l-160,159.96C123.31,224.8,123.31,255.2,142.06,273.94z M176,240L336,80v120
	c120.616,0,256,6.513,256,128.38c0,55.8-28.79,83.87-57.6,103.62c41.002-136.247-60.829-152-198.4-152v120L176,240z M14.059,206.059
	l160-159.962c20.389-20.389,50.822-17.22,68.29,0.31L48,240l194.35,193.603c-17.474,17.531-47.921,20.675-68.291,0.306l-160-159.967
	C-4.686,255.196-4.686,224.804,14.059,206.059z"/>
</svg>
