<!-- Generator: Adobe Illustrator 21.1.0, SVG Export Plug-In  -->
<svg version="1.1"
	 xmlns="http://www.w3.org/2000/svg" xmlns:xlink="http://www.w3.org/1999/xlink" xmlns:a="http://ns.adobe.com/AdobeSVGViewerExtensions/3.0/"
	 x="0px" y="0px" width="576px" height="512px" viewBox="0 0 576 512" style="enable-background:new 0 0 576 512;"
	 xml:space="preserve">
<path d="M14.062,257.94L190.06,433.88c30.21,30.21,81.94,8.7,81.94-33.94v-78.28c146.59,8.54,158.53,50.199,134.18,127.879
	c-13.65,43.56,35.07,78.89,72.19,54.46C537.98,464.768,576,403.8,576,330.05c0-170.37-166.04-197.15-304-201.3V48.047
	c0-42.72-51.79-64.09-81.94-33.94L14.062,190.06C-4.688,208.8-4.688,239.2,14.062,257.94z M48,224L224,48v128.03
	c143.181,0.63,304,11.778,304,154.02c0,66.96-40,109.95-76.02,133.65C501.44,305.911,388.521,273.88,224,272.09V400L48,224z"/>
</svg>
