<!-- Generator: Adobe Illustrator 21.1.0, SVG Export Plug-In  -->
<svg version="1.1"
	 xmlns="http://www.w3.org/2000/svg" xmlns:xlink="http://www.w3.org/1999/xlink" xmlns:a="http://ns.adobe.com/AdobeSVGViewerExtensions/3.0/"
	 x="0px" y="0px" width="640px" height="512px" viewBox="0 0 640 512" style="enable-background:new 0 0 640 512;"
	 xml:space="preserve">
<style type="text/css">
	.st0{fill:none;}
</style>
<defs>
</defs>
<path d="M388.461,387.515c7.56,7.56,2.206,20.485-8.485,20.485H128c-13.255,0-24-10.745-24-24V171.187l-72.162-0.001
	c-10.683-0.001-16.022-12.949-8.485-20.485l96.156-96.156c4.686-4.686,12.284-4.687,16.971,0l96.16,96.16
	c7.58,7.58,2.14,20.485-8.485,20.485L152,171.188V360h203.976c3.183,0,6.235,1.264,8.485,3.515L388.461,387.515z M608.162,340.815
	L536,340.813V128c0-13.255-10.745-24-24-24H260.024c-10.691,0-16.045,12.926-8.485,20.485l24,24c2.25,2.25,5.303,3.515,8.485,3.515
	H488v188.812l-72.154-0.001c-10.625,0-16.066,12.905-8.485,20.485l96.16,96.16c4.686,4.687,12.285,4.686,16.971,0l96.156-96.156
	C624.183,353.764,618.845,340.815,608.162,340.815z"/>
</svg>
