<!-- Generator: Adobe Illustrator 21.1.0, SVG Export Plug-In  -->
<svg version="1.1"
	 xmlns="http://www.w3.org/2000/svg" xmlns:xlink="http://www.w3.org/1999/xlink" xmlns:a="http://ns.adobe.com/AdobeSVGViewerExtensions/3.0/"
	 x="0px" y="0px" width="640px" height="512px" viewBox="0 0 640 512" style="enable-background:new 0 0 640 512;"
	 xml:space="preserve">
<style type="text/css">
	.st0{fill:none;}
</style>
<defs>
</defs>
<path d="M624.485,353.456l-104,104c-4.686,4.686-12.284,4.686-16.971,0l-104-104c-4.686-4.686-4.686-12.284,0-16.971l16.877-16.877
	c4.723-4.723,12.393-4.681,17.064,0.094L488,375.465V152H284.024c-3.183,0-6.235-1.264-8.485-3.515l-24-24
	c-7.56-7.56-2.206-20.485,8.485-20.485H512c13.255,0,24,10.745,24,24v247.465l54.545-55.762c4.671-4.775,12.341-4.817,17.064-0.094
	l16.877,16.877C629.172,341.172,629.172,348.77,624.485,353.456z M364.461,363.515c-2.25-2.25-5.303-3.515-8.485-3.515H152V136.535
	l54.545,55.762c4.671,4.775,12.341,4.817,17.064,0.094l16.877-16.877c4.686-4.686,4.686-12.284,0-16.971l-104-104
	c-4.686-4.686-12.284-4.686-16.971,0l-104,104c-4.686,4.686-4.686,12.284,0,16.971l16.877,16.877
	c4.723,4.723,12.393,4.681,17.064-0.094L104,136.535V384c0,13.255,10.745,24,24,24h251.976c10.691,0,16.045-12.926,8.485-20.485
	L364.461,363.515z"/>
</svg>
