<!-- Generator: Adobe Illustrator 21.1.0, SVG Export Plug-In  -->
<svg version="1.1"
	 xmlns="http://www.w3.org/2000/svg" xmlns:xlink="http://www.w3.org/1999/xlink" xmlns:a="http://ns.adobe.com/AdobeSVGViewerExtensions/3.0/"
	 x="0px" y="0px" width="640px" height="512px" viewBox="0 0 640 512" style="enable-background:new 0 0 640 512;"
	 xml:space="preserve">
<path d="M497.94,206.06l-160-159.96C307.89,16.04,256,37.16,256,80.04v72.73C127.16,157.36,0,185.98,0,328.38
	c0,63.78,27.85,108.41,78.46,143.11c36.89,25.28,86.27-9.68,73.1-53.43c-17.51-58.18-13.74-84.23,104.44-89.17v71.08
	c0,42.92,51.92,63.96,81.94,33.94l160-159.97C516.69,255.2,516.69,224.8,497.94,206.06z M304,400V280
	c-137.571,0-239.402,15.753-198.4,152C76.79,412.25,48,384.18,48,328.38C48,206.513,183.384,200,304,200V80l160,160L304,400z
	 M625.941,273.941l-160,159.967c-20.37,20.37-50.817,17.225-68.291-0.306L592,240L397.652,46.407
	c17.468-17.53,47.9-20.699,68.29-0.31l160,159.962C644.686,224.804,644.686,255.196,625.941,273.941z"/>
</svg>
