<!-- Generator: Adobe Illustrator 21.1.0, SVG Export Plug-In  -->
<svg version="1.1"
	 xmlns="http://www.w3.org/2000/svg" xmlns:xlink="http://www.w3.org/1999/xlink" xmlns:a="http://ns.adobe.com/AdobeSVGViewerExtensions/3.0/"
	 x="0px" y="0px" width="352px" height="512px" viewBox="0 0 352 512" style="enable-background:new 0 0 352 512;"
	 xml:space="preserve">
<path d="M345.04,368l-136,136.901c-9.388,9.465-24.691,9.465-34.079,0L38.96,368c-9.307-9.384-9.277-24.526,0.069-33.872
	l22.056-22.056c9.619-9.619,25.301-9.329,34.557,0.639L152,373.16V80H68.024c-3.183,0-6.235-1.264-8.485-3.515l-56-56
	C-4.021,12.926,1.333,0,12.024,0L208,0c13.255,0,24,10.745,24,24v349.16l56.357-60.448c9.256-9.968,24.938-10.258,34.557-0.639
	l22.056,22.056C354.316,343.474,354.347,358.616,345.04,368z"/>
</svg>
