<!-- Generator: Adobe Illustrator 21.1.0, SVG Export Plug-In  -->
<svg version="1.1"
	 xmlns="http://www.w3.org/2000/svg" xmlns:xlink="http://www.w3.org/1999/xlink" xmlns:a="http://ns.adobe.com/AdobeSVGViewerExtensions/3.0/"
	 x="0px" y="0px" width="352px" height="512px" viewBox="0 0 352 512" style="enable-background:new 0 0 352 512;"
	 xml:space="preserve">
<path d="M345.04,144l-136-136.901c-9.388-9.465-24.691-9.465-34.079,0L38.96,144c-9.307,9.384-9.277,24.526,0.069,33.872
	l22.056,22.056c9.619,9.619,25.301,9.329,34.557-0.639L152,138.84V432H68.024c-3.183,0-6.235,1.264-8.485,3.515l-56,56
	C-4.021,499.074,1.333,512,12.024,512H208c13.255,0,24-10.745,24-24V138.84l56.357,60.448c9.256,9.968,24.938,10.258,34.557,0.639
	l22.056-22.056C354.316,168.526,354.347,153.384,345.04,144z"/>
</svg>
