<!-- Generator: Adobe Illustrator 21.1.0, SVG Export Plug-In  -->
<svg version="1.1"
	 xmlns="http://www.w3.org/2000/svg" xmlns:xlink="http://www.w3.org/1999/xlink" xmlns:a="http://ns.adobe.com/AdobeSVGViewerExtensions/3.0/"
	 x="0px" y="0px" width="512px" height="512px" viewBox="0 0 512 512" style="enable-background:new 0 0 512 512;"
	 xml:space="preserve">
<style type="text/css">
	.st0{fill:none;}
</style>
<defs>
</defs>
<path d="M512,256c0,88.224-71.775,160-160,160H170.067l34.512,32.419c9.875,9.276,10.119,24.883,0.539,34.464l-10.775,10.775
	c-9.373,9.372-24.568,9.372-33.941,0l-92.686-92.686c-9.373-9.373-9.373-24.568,0-33.941l80.269-80.27
	c9.373-9.373,24.568-9.373,33.941,0l10.775,10.775c9.581,9.581,9.337,25.187-0.539,34.464L170.067,352H352c52.935,0,96-43.065,96-96
	c0-13.958-2.996-27.228-8.376-39.204c-4.061-9.039-2.284-19.626,4.723-26.633l12.183-12.183
	c11.499-11.499,30.965-8.526,38.312,5.982C505.814,205.624,512,230.103,512,256z M72.376,295.204C66.996,283.228,64,269.958,64,256
	c0-52.935,43.065-96,96-96h181.933l-22.095,20.002c-9.875,9.276-10.119,24.883-0.539,34.464l10.775,10.775
	c9.373,9.372,24.568,9.372,33.941,0l80.269-80.27c9.373-9.373,9.373-24.568,0-33.941l-92.686-92.686
	c-9.373-9.373-24.568-9.373-33.941,0l-10.775,10.775c-9.581,9.581-9.337,25.187,0.539,34.464L341.933,96H160
	C71.775,96,0,167.776,0,256c0,25.897,6.186,50.376,17.157,72.039c7.347,14.508,26.813,17.481,38.312,5.982l12.183-12.183
	C74.66,314.83,76.438,304.243,72.376,295.204z M227.263,299.527c0-7.477,3.917-11.572,11.573-11.572h15.131v-39.878
	c0-5.163,0.534-10.503,0.534-10.503h-0.356c0,0-1.779,2.67-2.848,3.738c-4.451,4.273-10.504,4.451-15.666-1.068l-5.518-6.231
	c-5.342-5.341-4.984-11.216,0.534-16.379l21.72-19.939c4.449-4.095,8.366-5.697,14.42-5.697h12.105
	c7.656,0,11.749,3.916,11.749,11.572v84.384h15.488c7.655,0,11.572,4.094,11.572,11.572v8.901c0,7.477-3.917,11.572-11.572,11.572
	h-67.293c-7.656,0-11.573-4.095-11.573-11.572V299.527z"/>
</svg>
