<!-- Generator: Adobe Illustrator 21.1.0, SVG Export Plug-In  -->
<svg version="1.1"
	 xmlns="http://www.w3.org/2000/svg" xmlns:xlink="http://www.w3.org/1999/xlink" xmlns:a="http://ns.adobe.com/AdobeSVGViewerExtensions/3.0/"
	 x="0px" y="0px" width="512px" height="512px" viewBox="0 0 512 512" style="enable-background:new 0 0 512 512;"
	 xml:space="preserve">
<style type="text/css">
	.st0{fill:none;}
</style>
<defs>
</defs>
<path d="M493.544,181.463c11.956,22.605,18.655,48.4,18.452,75.75C511.339,345.365,438.56,416,350.404,416H192l0,47.495
	c0,22.475-26.177,32.268-40.971,17.475l-80-80c-9.372-9.373-9.372-24.569,0-33.941l80-80C166.138,271.92,192,282.686,192,304v48
	h158.875c52.812,0,96.575-42.182,97.12-94.992c0.155-15.045-3.17-29.312-9.218-42.046c-4.362-9.185-2.421-20.124,4.8-27.284
	c4.745-4.706,8.641-8.555,11.876-11.786C466.821,164.54,486.032,167.261,493.544,181.463z M64.005,254.992
	C64.55,202.182,108.313,160,161.125,160H320l0,47.505c0,22.374,26.121,32.312,40.971,17.465l80-80
	c9.372-9.373,9.372-24.569,0-33.941l-80-80C346.014,16.077,320,26.256,320,48.545V96H161.596C73.44,96,0.661,166.635,0.005,254.788
	c-0.204,27.35,6.495,53.145,18.452,75.75c7.512,14.202,26.723,16.923,38.091,5.57c3.235-3.231,7.13-7.08,11.876-11.786
	c7.22-7.16,9.162-18.098,4.8-27.284C67.175,284.303,63.85,270.037,64.005,254.992z"/>
</svg>
