<!-- Generator: Adobe Illustrator 21.1.0, SVG Export Plug-In  -->
<svg version="1.1"
	 xmlns="http://www.w3.org/2000/svg" xmlns:xlink="http://www.w3.org/1999/xlink" xmlns:a="http://ns.adobe.com/AdobeSVGViewerExtensions/3.0/"
	 x="0px" y="0px" width="576px" height="512px" viewBox="0 0 576 512" style="enable-background:new 0 0 576 512;"
	 xml:space="preserve">
<path d="M136.309,189.836L312.313,37.851C327.72,24.546,352,35.348,352,56.015v82.763c129.182,10.231,224,52.212,224,183.548
	c0,61.441-39.582,122.309-83.333,154.132c-13.653,9.931-33.111-2.533-28.077-18.631c38.512-123.162-3.922-169.482-112.59-182.015
	v84.175c0,20.701-24.3,31.453-39.687,18.164L136.309,226.164C125.238,216.603,125.223,199.411,136.309,189.836z M8.309,226.164
	L184.313,378.15C199.7,391.439,224,380.687,224,359.986v-15.818l-108.606-93.785C103.069,239.738,96,224.29,96,207.998
	c0-16.289,7.068-31.736,19.393-42.38L224,71.832V56.015c0-20.667-24.28-31.469-39.687-18.164L8.309,189.836
	C-2.777,199.411-2.762,216.603,8.309,226.164z"/>
</svg>
