<!-- Generator: Adobe Illustrator 21.1.0, SVG Export Plug-In  -->
<svg version="1.1"
	 xmlns="http://www.w3.org/2000/svg" xmlns:xlink="http://www.w3.org/1999/xlink" xmlns:a="http://ns.adobe.com/AdobeSVGViewerExtensions/3.0/"
	 x="0px" y="0px" width="640px" height="512px" viewBox="0 0 640 512" style="enable-background:new 0 0 640 512;"
	 xml:space="preserve">
<style type="text/css">
	.st0{fill:none;}
</style>
<defs>
</defs>
<path d="M629.657,343.598L528.971,444.284c-9.373,9.372-24.568,9.372-33.941,0L394.343,343.598c-9.373-9.373-9.373-24.569,0-33.941
	l10.823-10.823c9.562-9.562,25.133-9.34,34.419,0.492L480,342.118V160H292.451c-6.365,0-12.47-2.529-16.971-7.029l-16-16
	C244.361,121.851,255.069,96,276.451,96H520c13.255,0,24,10.745,24,24v222.118l40.416-42.792
	c9.285-9.831,24.856-10.054,34.419-0.492l10.823,10.823C639.03,319.029,639.03,334.226,629.657,343.598z M364.519,359.029
	c-4.501-4.501-10.605-7.029-16.971-7.029H160V169.881l40.416,42.792c9.286,9.831,24.856,10.054,34.419,0.491l10.822-10.822
	c9.373-9.373,9.373-24.569,0-33.941L144.971,67.716c-9.373-9.373-24.569-9.373-33.941,0L10.343,168.402
	c-9.373,9.373-9.373,24.569,0,33.941l10.822,10.822c9.562,9.562,25.133,9.34,34.419-0.491L96,169.881V392c0,13.255,10.745,24,24,24
	h243.549c21.382,0,32.09-25.851,16.971-40.971L364.519,359.029z"/>
</svg>
