<!-- Generator: Adobe Illustrator 21.1.0, SVG Export Plug-In  -->
<svg version="1.1"
	 xmlns="http://www.w3.org/2000/svg" xmlns:xlink="http://www.w3.org/1999/xlink" xmlns:a="http://ns.adobe.com/AdobeSVGViewerExtensions/3.0/"
	 x="0px" y="0px" width="576px" height="512px" viewBox="0 0 576 512" style="enable-background:new 0 0 576 512;"
	 xml:space="preserve">
<path d="M439.691,226.164L263.687,378.15C248.3,391.439,224,380.687,224,359.986v-84.175
	c-108.668,12.533-151.102,58.854-112.59,182.015c5.034,16.098-14.424,28.562-28.077,18.631C39.582,444.635,0,383.766,0,322.326
	C0,190.99,94.818,149.009,224,138.777V56.015c0-20.667,24.28-31.469,39.687-18.164l176.004,151.985
	C450.777,199.411,450.762,216.603,439.691,226.164z M567.691,189.836L391.687,37.851C376.28,24.546,352,35.348,352,56.015v15.818
	l108.607,93.786C472.932,176.262,480,191.709,480,207.998c0,16.292-7.069,31.74-19.394,42.385L352,344.168v15.818
	c0,20.701,24.3,31.453,39.687,18.164l176.004-151.986C578.762,216.603,578.777,199.411,567.691,189.836z"/>
</svg>
