<!-- Generator: Adobe Illustrator 21.1.0, SVG Export Plug-In  -->
<svg version="1.1"
	 xmlns="http://www.w3.org/2000/svg" xmlns:xlink="http://www.w3.org/1999/xlink" xmlns:a="http://ns.adobe.com/AdobeSVGViewerExtensions/3.0/"
	 x="0px" y="0px" width="256px" height="512px" viewBox="0 0 256 512" style="enable-background:new 0 0 256 512;"
	 xml:space="preserve">
<path d="M237.27,72.083l-71.986-64c-12.125-10.777-30.395-10.777-42.52,0l-71.987,64C28.973,91.465,42.473,128,72.037,128h53.987
	v348h-94c-3.183,0-6.235,1.264-8.485,3.515l-12,12C3.979,499.074,9.333,512,20.024,512h118c13.255,0,24-10.745,24-24V128h53.986
	C245.562,128,259.082,91.472,237.27,72.083z M72.024,96l72-64l72,64H72.024z"/>
</svg>
