<!-- Generator: Adobe Illustrator 21.1.0, SVG Export Plug-In  -->
<svg version="1.1"
	 xmlns="http://www.w3.org/2000/svg" xmlns:xlink="http://www.w3.org/1999/xlink" xmlns:a="http://ns.adobe.com/AdobeSVGViewerExtensions/3.0/"
	 x="0px" y="0px" width="256px" height="512px" viewBox="0 0 256 512" style="enable-background:new 0 0 256 512;"
	 xml:space="preserve">
<path d="M252.478,103.497L152.504,3.522c-4.697-4.697-12.311-4.697-17.008,0l-99.974,99.975c-4.696,4.697-4.696,12.311,0,17.008
	l8.503,8.503c4.697,4.697,12.311,4.697,17.007,0L126,64.041V476H24.024c-3.183,0-6.235,1.264-8.485,3.515l-12,12
	C-4.021,499.074,1.333,512,12.024,512H138c13.255,0,24-10.745,24-24V64.041l64.967,64.966c4.697,4.697,12.311,4.697,17.007,0
	l8.503-8.503C257.174,115.808,257.174,108.194,252.478,103.497z"/>
</svg>
