<!-- Generator: Adobe Illustrator 21.1.0, SVG Export Plug-In  -->
<svg version="1.1"
	 xmlns="http://www.w3.org/2000/svg" xmlns:xlink="http://www.w3.org/1999/xlink" xmlns:a="http://ns.adobe.com/AdobeSVGViewerExtensions/3.0/"
	 x="0px" y="0px" width="256px" height="512px" viewBox="0 0 256 512" style="enable-background:new 0 0 256 512;"
	 xml:space="preserve">
<path d="M216.01,384h-53.986V24c0-13.255-10.745-24-24-24l-118,0C9.333,0,3.979,12.926,11.539,20.485l12,12
	c2.25,2.25,5.302,3.515,8.485,3.515h94v348H72.037c-29.564,0-43.064,36.535-21.26,55.917l71.987,64
	c12.125,10.777,30.395,10.777,42.52,0l71.986-64C259.082,420.528,245.562,384,216.01,384z M216.024,416l-72,64l-72-64H216.024z"/>
</svg>
