<!-- Generator: Adobe Illustrator 21.1.0, SVG Export Plug-In  -->
<svg version="1.1"
	 xmlns="http://www.w3.org/2000/svg" xmlns:xlink="http://www.w3.org/1999/xlink" xmlns:a="http://ns.adobe.com/AdobeSVGViewerExtensions/3.0/"
	 x="0px" y="0px" width="512px" height="512px" viewBox="0 0 512 512" style="enable-background:new 0 0 512 512;"
	 xml:space="preserve">
<defs>
</defs>
<path d="M54.027,327.713C40.129,307.242,32,282.553,32,256c0-70.579,57.421-128,128-128h160v63.969
	c0,29.239,36.192,43.177,55.785,21.407l72-79.968c10.952-12.169,10.953-30.644,0-42.814l-72-79.974
	C356.226-11.114,320,2.738,320,32.026V96H160C71.775,96,0,167.775,0,256c0,33.913,10.612,65.391,28.683,91.299
	c4.427,6.348,13.606,6.936,18.785,1.185l5.488-6.096C56.623,338.315,57.105,332.248,54.027,327.713z M352,32l72,80l-72,80V32z
	 M483.317,164.701c-4.427-6.348-13.606-6.936-18.785-1.185l-5.488,6.096c-3.667,4.073-4.149,10.14-1.071,14.675
	C471.871,204.758,480,229.447,480,256c0,70.579-57.421,128-128,128H192v-63.969c0-29.239-36.192-43.177-55.785-21.407l-72,79.969
	c-10.952,12.169-10.953,30.644,0,42.814l72,79.974C155.774,523.113,192,509.264,192,479.974V416h160c88.225,0,160-71.775,160-160
	C512,222.087,501.388,190.609,483.317,164.701z M160,480l-72-80l72-80V480z M229.495,302.993c0-6.444,3.401-9.847,9.847-9.847
	h17.365v-53.348c0-4.834,0.179-9.847,0.179-9.847h-0.359c0,0-1.79,3.939-3.938,5.729l-1.611,1.432
	c-4.655,4.298-9.489,4.117-13.786-0.537l-4.654-5.013c-4.475-4.654-4.297-9.487,0.358-13.963l22.2-20.767
	c3.759-3.401,7.161-4.833,12.173-4.833h10.205c6.444,0,9.846,3.4,9.846,9.846v91.301h17.544c6.444,0,9.847,3.402,9.847,9.847v7.162
	c0,6.443-3.402,9.846-9.847,9.846h-65.522c-6.445,0-9.847-3.402-9.847-9.846V302.993z"/>
</svg>
