<!-- Generator: Adobe Illustrator 21.1.0, SVG Export Plug-In  -->
<svg version="1.1"
	 xmlns="http://www.w3.org/2000/svg" xmlns:xlink="http://www.w3.org/1999/xlink" xmlns:a="http://ns.adobe.com/AdobeSVGViewerExtensions/3.0/"
	 x="0px" y="0px" width="576px" height="512px" viewBox="0 0 576 512" style="enable-background:new 0 0 576 512;"
	 xml:space="preserve">
<path d="M105.368,246.631l160.002,159.98c20.02,20.01,54.63,5.98,54.63-22.63v-71.15c121.58,4.36,148.9,28.23,121.2,126.42
	c-8.35,29.59,25.5,52.21,49.69,34.51c51.57-37.71,85.11-90.99,85.11-155.97c0-152.9-140.5-177.23-256-181.07v-72.69
	c0-28.59-34.59-42.67-54.63-22.63l-160.002,159.97C92.877,213.871,92.877,234.131,105.368,246.631z M128,224.001l160-160v104.1
	c130.165,1.345,256,18.265,256,149.69c0,65.1-40.49,107.16-72,130.21c40.979-145.267-38.329-166.574-184-167.9v103.9L128,224.001z
	 M9.372,201.373l160-159.974c13.467-13.467,33.495-11.506,45.189-0.105L32,224.001l182.564,182.712
	c-11.699,11.403-31.738,13.347-45.191-0.106l-160-159.978C-3.124,234.131-3.124,213.87,9.372,201.373z"/>
</svg>
