<!-- Generator: Adobe Illustrator 21.1.0, SVG Export Plug-In  -->
<svg version="1.1"
	 xmlns="http://www.w3.org/2000/svg" xmlns:xlink="http://www.w3.org/1999/xlink" xmlns:a="http://ns.adobe.com/AdobeSVGViewerExtensions/3.0/"
	 x="0px" y="0px" width="576px" height="512px" viewBox="0 0 576 512" style="enable-background:new 0 0 576 512;"
	 xml:space="preserve">
<path d="M11.093,251.65l175.998,184C211.81,461.494,256,444.239,256,408v-87.84c154.425,1.812,219.063,16.728,181.19,151.091
	c-8.341,29.518,25.447,52.232,49.68,34.51C520.16,481.421,576,426.17,576,331.19c0-171.087-154.548-201.035-320-203.02V40.016
	c0-36.27-44.216-53.466-68.91-27.65L11.093,196.35C-3.698,211.82-3.698,236.18,11.093,251.65z M34.22,218.47l176-184
	C215.149,29.31,224,32.738,224,40v120c157.114,0,320,11.18,320,171.19c0,74.4-40,122.17-76.02,148.51
	C519.313,297.707,395.396,288,224,288v120c0,7.26-8.847,10.69-13.78,5.53l-176-184C31.25,226.43,31.25,221.57,34.22,218.47z"/>
</svg>
