<!-- Generator: Adobe Illustrator 21.1.0, SVG Export Plug-In  -->
<svg version="1.1"
	 xmlns="http://www.w3.org/2000/svg" xmlns:xlink="http://www.w3.org/1999/xlink" xmlns:a="http://ns.adobe.com/AdobeSVGViewerExtensions/3.0/"
	 x="0px" y="0px" width="640px" height="512px" viewBox="0 0 640 512" style="enable-background:new 0 0 640 512;"
	 xml:space="preserve">
<style type="text/css">
	.st0{fill:none;}
</style>
<defs>
</defs>
<path d="M607.974,320H544V120c0-13.255-10.745-24-24-24H252.024c-10.998,0-16.202,13.562-8.028,20.919l8.889,8
	c2.203,1.983,5.063,3.081,8.028,3.081H512v192h-63.968c-29.239,0-43.177,36.192-21.407,55.785l79.969,72
	c12.169,10.952,30.644,10.953,42.814,0l79.974-72C651.113,356.226,637.264,320,607.974,320z M528,424l-80-72h160L528,424z
	 M396.003,395.08l-8.889-8c-2.203-1.983-5.063-3.08-8.028-3.08H128V192h63.968c29.239,0,43.177-36.192,21.407-55.785l-79.968-72
	c-12.169-10.952-30.644-10.953-42.814,0l-79.974,72C-11.114,155.774,2.738,192,32.026,192H96v200c0,13.255,10.745,24,24,24h267.976
	C398.974,416,404.178,402.438,396.003,395.08z M32,160l80-72l80,72H32z"/>
</svg>
