<!-- Generator: Adobe Illustrator 21.1.0, SVG Export Plug-In  -->
<svg version="1.1"
	 xmlns="http://www.w3.org/2000/svg" xmlns:xlink="http://www.w3.org/1999/xlink" xmlns:a="http://ns.adobe.com/AdobeSVGViewerExtensions/3.0/"
	 x="0px" y="0px" width="640px" height="512px" viewBox="0 0 640 512" style="enable-background:new 0 0 640 512;"
	 xml:space="preserve">
<style type="text/css">
	.st0{fill:none;}
</style>
<defs>
</defs>
<path d="M634.828,363.799l-98.343,98.343c-4.686,4.686-12.284,4.686-16.971,0l-98.343-98.343c-4.686-4.686-4.686-12.284,0-16.971
	l5.656-5.656c4.686-4.686,12.284-4.686,16.971,0L512,409.372V128H260.024c-3.183,0-6.235-1.264-8.485-3.515l-8-8
	c-7.56-7.56-2.206-20.485,8.485-20.485H520c13.255,0,24,10.745,24,24v289.372l68.201-68.201c4.686-4.686,12.284-4.686,16.971,0
	l5.656,5.656C639.514,351.514,639.514,359.112,634.828,363.799z M388.461,387.515c-2.25-2.25-5.303-3.515-8.485-3.515H128V102.628
	l68.201,68.2c4.686,4.686,12.284,4.686,16.97,0l5.657-5.657c4.686-4.686,4.687-12.284,0-16.971l-98.343-98.343
	c-4.686-4.686-12.284-4.686-16.971,0L5.172,148.201c-4.686,4.686-4.686,12.285,0,16.971l5.657,5.657
	c4.686,4.686,12.284,4.686,16.97,0L96,102.628V392c0,13.255,10.745,24,24,24h267.976c10.691,0,16.045-12.926,8.485-20.485
	L388.461,387.515z"/>
</svg>
